<?xml version="1.0" encoding="UTF-8"?>
<svg id="a" data-name="Capa 1" xmlns="http://www.w3.org/2000/svg" viewBox="0 0 1816 1783.42">
  <path id="b" data-name="gamerguyMonitorLeft" d="M769.32,388.28c-2.35,1.25-4.92,2.48-7.52,3.56-4.2,1.7-8.9,2.7-14.1,3-7.1.4-8,.2-11.7-2.1l-3.9-2.7-5.3,2.5c-7.5,3.5-18.8,3.5-26.2,0-9.8-4.6-28.4-25.9-39-44.5l-3.7-6.5-153.7.3c-170.3.3-159.3-.2-167.9,6.8-2.4,2-5.3,5.8-7,9.2l-2.8,5.7-.3,236.4-.2,236.4,2.3,5.1c3.3,7.2,6.7,10.8,13.5,14.4,7,3.8,18.2,5.7,25.8,4.5,4.6-.7,5.5-1.4,9.5-6.3,5.6-6.8,15-14.8,29.7-25.2,9.4-6.8,11.2-8.4,11.2-10.7,0-7.1,2.2-41.5,3-47.9.7-5.4,3.3-12.9,9.9-29,15.6-38.2,24.4-61.7,37.6-100.2,8.4-24.5,12.5-33.3,21.4-46.2,8.2-12,23.9-28,35.6-36.3,8.9-6.4,25.4-14.9,36-18.8,10.3-3.7,29-8.7,64.5-17.2,17.3-4.2,32.2-7.8,33-8.1.8-.2,3-3.9,4.9-8.2,1.9-4.2,6.7-14.9,10.7-23.7,3.9-8.8,8-18.6,8.9-21.7l1.8-5.6,20.1-8.5c28.23-11.95,52.63-20.56,76.28-26.75"/>
  <path id="c" data-name="gamerguyMonitorRight" d="M1008.87,420.5c27.33,5.42,52.82,12.5,80.53,21.74l16,5.3,18.8,32.5c10.3,17.8,19.3,33.2,20.1,34,.9,1.1,4.8,2,12.8,2.9,62.2,7,97,21.7,125.6,53.4,14.5,16,23.4,33,35.7,68.3,16.2,46.3,25.1,69,41.6,105.4,10.1,22.5,10.6,24.9,11.7,54.3l.6,17.8,17.6,11.1c27.9,17.5,28.1,17.7,32.3,27.8l2.1,5h6.6c14.9,0,26.3-4,33.1-11.7,7.6-8.7,7.1,12,6.8-248.8l-.3-234-2.2-4.7c-3-6.6-9.5-13.2-15.6-15.9l-5.2-2.4-154.8-.5-154.7-.5-4.4,7.5c-11.6,20-30,40.1-40,43.9-8.2,3-18.7,2.9-25.1-.3l-4.8-2.5-4.2,2.5c-5.6,3.3-14.9,3.3-23.8.1-3.01-1.08-8.23-3.66-12.17-5.7"/>
  <g id="d" data-name="gamerguyBody">
    <path d="M1006.6,398.52,1019.6,368.13c.2-.2,2.5,1,5.1,2.7,7.8,5,18.3,9.4,22.8,9.4,4.9.1,10.8-2.5,13.8-6.1l2.2-2.7,5.8,4.3c12.3,9,19.5,6.7,35.3-10.8,23.9-26.8,34.6-57.6,36.1-104.5.4-13.2.2-19-.7-21.8-1.8-5.4-7.6-11.5-13.6-14.2l-5.1-2.2-.6-6.9c-.3-3.7-.9-8.9-1.3-11.6l-.7-4.7h5.2c2.8,0,5.1-.4,5.1-.9,0-4.9-7.7-36.4-11.2-45.9-1.7-4.6-2.3-5.2-4.7-5.2-2.7,0-3-.5-6.1-9.3-9.5-27.6-25.6-51.5-52.4-78.2-19.4-19.2-35.8-30.5-58.2-40.2-35.7-15.3-80.6-22.1-121.9-18.3-25.9,2.4-60.7,11.7-82.4,22.1-28,13.3-59.2,40.6-80.7,70.5-7.2,10-18.8,32.7-23.1,45.1-2.7,8-2.9,8.2-5.8,8-2.9-.2-3.1,0-5.9,8.3-3,9.1-10.6,42-9.9,43.2.2.5,2.5.8,5,.8h4.6l-.7,5.2c-.3,2.9-.9,8.3-1.2,11.9l-.7,6.6-5.3,2.3c-6.6,2.7-10.9,7.6-13,14.9-2,6.6-1.3,23.3,1.7,45.1,5.3,37.2,16.2,61.3,38.7,85.2,11.5,12.2,19.3,13.7,30.3,5.9l5.9-4.2,4.3,3.4c6.2,5,8.2,5.9,12.5,5.1,4.9-.9,14.9-5.4,20.7-9.4,2.6-1.8,5-2.8,5.5-2.4l4.64,14.13c3.99,11.29,8.44,22.37,13.94,32.99.35.68,1.12,1.03,1.86.86.65-.15,1.29-.29,1.93-.44,10.96-2.41,21.89-4.33,33.12-5.85,16.1-2.2,81-2.5,102.5-.5,22.67,2.11,43.85,4.95,64.42,8.68M1111.2,239.33c6.9-10.4,7.6-10.8,14.5-6.8,6.9,4.1,7.8,6.9,7.6,21.5-.2,6.9-.7,15.6-1.3,19.5-1.1,7.1-7,26.9-7.8,26.1-.2-.3-1.2-4.6-2.2-9.8-2.3-11.5-5.3-21.3-8-25.6-1.2-1.9-3.9-4.1-6.7-5.4-2.7-1.3-4.9-2.3-5.1-2.4-.9-.5,3.5-8.7,9-17.1ZM1057.2,248.33c-5.1,9-5.5,8.9-10.6-.5l-2.9-5.4,1.7-7.6c2.8-12.6,12-29.9,16.9-31.7,1.9-.7,11.1,1,12.4,2.3.3.2-1.1,4.4-3,9.3-1.9,4.8-4.9,12.6-6.7,17.3s-5.3,12-7.8,16.3ZM1093.1,307.03l-3.5,9.5c-2,5.3-5,12.4-6.7,15.8-4.2,8.4-13.2,23.7-14,23.7-.7,0,3.5-16.2,12-45.9,3.4-11.6,6.1-21.4,6.1-21.8,0-1.8,1.1,1.1,3.5,9.4l2.6,9.3ZM1056.6,99.33c12.3,14.7,20,27.1,26.8,43.4,3.4,8.1,3.3,9.8-.4,11.3-1.6.7-3,1.6-3,2,0,.5,1.8,8.9,3.9,18.7,2.2,9.8,4.3,19.5,4.7,21.6l.6,3.8-6.8-2.6c-9.2-3.4-19.6-4.3-24.8-2.1-2.2.9-4.1,1.5-4.3,1.2-.2-.2.2-4.5.8-9.5l1.2-9.2,2.6,2.3c1.4,1.3,3.7,3.2,5,4.3l2.4,2-.8-7.9c-.4-4.4-2-14.1-3.5-21.5-1.6-8-2.4-14-1.9-14.7,2-2.5-8.6-34.6-17.3-52.1-2.9-5.9-5.4-11.3-5.7-11.8-.7-2,13.4,12.3,20.5,20.8ZM688.1,258.33c-6.6,3-11.2,12.1-14,28.2-2.8,15.5-2.4,15.2-6,4-5.1-15.7-7.8-42.8-5-50.2,2.3-6.1,8.3-10.2,15.2-10.3,3.4,0,4,.4,5.3,3.5.7,1.9,1.4,4.4,1.4,5.5s1.6,5.2,3.5,9c1.9,3.8,3.5,7.3,3.5,7.8,0,.4-1.7,1.6-3.9,2.5ZM715.6,337.73c-2.1-3.7-5.9-12.2-8.5-18.8l-4.8-12,2.5-9c1.6-5.4,2.9-8.4,3.3-7.6.4.7,3.7,11.2,7.2,23.2,7.3,24.7,11.7,40.5,11.7,42,0,1.3-6.5-8.8-11.4-17.8ZM746.4,250.23l-3.7,6.1-1.8-2.4c-3.3-4.3-10.7-20.1-14.9-31.8-2.2-6.3-4.7-12.6-5.6-13.9s-1.4-2.5-1.2-2.7c.4-.5,10.1-3.3,11.4-3.4.6-.1,3,1.9,5.2,4.3,4.9,5.3,8.3,11.8,11.7,22.2,3.5,10.7,3.3,14.3-1.1,21.6ZM762,77.23c-3.6,5.5-18.4,35.9-22.8,46.9-4.4,10.9-10.4,30-9.7,30.7.2.2,3.1-1.2,6.3-3.2,3.3-2,6.2-3.6,6.4-3.6s-1.1,6.6-2.9,14.7c-3.6,16.1-3.8,17.7-2.3,16.8.6-.3,1,0,1.1.7,0,.7.4,4.6.8,8.6.7,7.1.6,7.3-1.4,6.7-6.1-2-14.1-1.5-22.2,1.3-8.1,2.8-8.3,2.8-8.3.8,0-1.2,2-11.1,4.5-22,2.5-11,4.2-20.3,3.8-20.7-.5-.4-1.9-.9-3.3-1.1-2.1-.3-2.5-.8-2.3-3.5.6-7.6,12.3-29.8,23.4-44.5,5.9-7.8,28.8-31.8,30.4-31.8.4,0-.3,1.5-1.5,3.2ZM813.4,371.53c-1.5,11-8.7,33.5-10.9,33.8-1.3.2-9.4-14.3-14.6-26.1-5.6-12.9-7.7-20.6-9.4-35.7-.9-7.2-1.8-14.6-2.2-16.5l-.6-3.5,2.3,2c1.3,1.1,9.9,10.8,19.2,21.5l16.9,19.4-.7,5.1ZM984.5,377.53c-1.5-6.5-1.6-8.2-.5-9.9,1.7-2.7,33.3-39.6,33.7-39.3.1.2-.6,7.3-1.7,15.8-1.1,8.4-2.9,18.3-4.1,21.7-2.5,7.5-17,36.4-18.3,36.6-1.3.2-7.1-15.6-9.1-24.9Z"/>
    <path d="M849.5,425.53c-30.6,2.6-57.7,8.4-91.5,19.5-18.8,6.2-54.2,20.4-57.5,23.1-.5.4-7.3,15.2-15,32.8l-14,32.1h-7c-10.4,0-81,17.3-100.3,24.6-21.6,8.1-43.1,24.2-56.9,42.7-7.7,10.1-13.3,22-20.8,43.7-9.8,28.1-25.7,70.6-37.3,99.6-11.5,28.8-11.6,28.9-12.8,64.9-.4,11-1.1,20.6-1.7,21.2-.5.7-6.7,5.4-13.8,10.4-14.9,10.6-25,18.9-29,23.9-2.4,2.9-3,5-3.9,13-2.2,19.3-5.6,31.3-13.2,46.5-5.5,11-9.7,17.2-23.2,34.5-11.4,14.7-18.1,25-24.3,37.5-8.1,16.2-8,15.9-3.8,26.7,5.8,14.6,19.4,41.7,30.3,60.3,5.5,9.3,9.8,17.1,9.7,17.3-.2.2-4.3-1.8-9.1-4.4-20.1-10.6-30.1-20.2-37.2-35.9l-2.3-5,.5,9.1c1.3,25.1,19.9,57.5,44.1,76.8,26.7,21.3,54.7,31.2,81,28.5,8.5-.9,18.9-3.6,24.6-6.5l2.5-1.3,1.3-26.3c2.1-46.6,6.8-106.7,9.6-124.8,8.1-50.7,38.1-89.7,87.9-113.9,65.8-32,159.6-43.3,348.5-41.8,113.3.9,173.2,5.6,232.2,18.2,80.4,17.2,130.1,48,153.4,95.1,11.6,23.3,15.3,39.7,19,83.9,1.5,18.6,4.9,71.3,6.1,96.3l.7,14.3,3.6,1.8c12.2,6.3,29.9,8.5,43.9,5.6,41-8.4,74.5-35.4,89.9-72.5,8.2-19.6,8.4-42.2.7-65.2l-2.6-7.8,2.1-6c2.4-6.9,2.6-12.4.7-19.5-1.7-6.7-7.6-18.2-13.7-27-5.5-8-20.1-24.7-27.4-31.4l-4.8-4.4-.2-19.6c-.3-21.6-1.6-31-6.5-46.5-4.1-12.7-6-15.1-16.5-21.4-5-2.9-15.8-9.6-24-14.8-14.9-9.5-15.1-9.7-14.7-12.9.7-5.9-1.8-46.8-3.2-52.5-.7-3-4.6-12.5-8.6-21-13.9-30-26.2-60.9-40.1-101.5-5-14.3-10.8-29.7-12.9-34.2-12.7-26.2-34.9-48.4-60.1-60.2-19.2-9-48.5-15.9-81.4-19.2-6.6-.6-12.8-1.4-13.7-1.8-1-.3-8.7-12.5-17.1-27.1-20.3-35-24.5-41.8-26.5-42.9-3.7-2-45.7-14.3-61.2-18-41.1-9.8-81.4-15.3-123.6-17.1-28.4-1.2-39.8-1.1-58.9.5ZM959.5,449.13c37.6,2.8,74,9.8,109,21,7.2,2.2,13.5,4.5,14.2,5,1.9,1.6,30.3,51,37.6,65.5l2.6,5.2,7.3.7c26.3,2.5,60.4,8.2,75.1,12.6,29.5,9,52.4,26.8,67.6,52.6,4.2,7.3,5.7,10.9,17.2,43.8,11.8,33.8,24.2,65.2,36.1,92,4.7,10.4,9,20.6,9.7,22.5,1.7,5.2,3.1,26,3.1,46.2v17.6l15.3,9.5c8.3,5.2,19.5,12,24.7,15.2,12.5,7.6,13.7,8.8,16,16.1,4.1,13.4,5,21.8,5.1,46.3v23.6l3.7,2.6c5.5,4,16.5,14.3,21.3,20l4.2,5-5.1,13.7c-14.1,37.8-21,70.7-26.6,127-1.3,12.8-2.6,23.5-2.8,23.7-.7.7-5.8-21-7.3-31.1-3.6-25-4.5-58.2-2-78.4,1.2-10.5,2.3-15.4,8-36.1l1.9-6.6-9.7-12.4c-15.8-20.2-17.4-25.1-16.3-52.2.3-9.5.9-19.5,1.2-22.2l.6-5-10.4-3.9c-54.2-20.3-72.9-43.4-82.3-101.6-1.3-8.5-2.9-17-3.4-18.8-1.6-5.3-5.8-11.9-14.3-22.2-9.4-11.3-14.9-22-17.5-34-2.6-12.3-2.4-42.7.5-60.5,1.1-7.1,1.9-13.1,1.7-13.3-.5-.5-8.7,15.1-14.1,26.8-2.6,5.8-5.1,10.9-5.5,11.4s-1.3-1.1-1.9-3.5c-5.9-21.8-30.7-48.2-58.5-62.2-13.8-6.9-31.4-13.3-43.3-15.8-3.1-.6-6.3-1.4-7-1.8-.9-.5,2-3.1,8.7-7.7,5.5-3.8,9.8-7,9.6-7.2-.6-.6-149,26.2-157,28.4-1.3.4-1-.1,1-1.5,1.7-1.2,3.3-2.1,3.7-2.1,1.5,0,77.8-37.9,77.8-38.6,0-.4-3.1-.4-7,0-3.8.3-7,.5-7,.3s13.2-10.4,29.4-22.8c33.1-25.2,32.5-24.2,12.5-21.5-17.5,2.3-60.1,8.6-62.9,9.3-1.4.3-2.2.2-1.8-.2s11.2-7,24-14.6,25.3-15,27.7-16.4,4.2-2.8,4-3-9.4-1.9-20.4-3.8c-57.5-10.1-93.6-14-144.9-15.7-17-.6-31.1-1.2-31.3-1.3-.1-.2,8.4-6.5,19-14l19.2-13.7,13.5.5c7.4.3,19.4,1,26.5,1.6ZM1079.5,608.93c-.6.5-5.7,4.6-11.5,9.1-51.2,40-108.2,60-171,60s-116.5-18.7-169.2-58.3c-6-4.4-10.6-8.2-10.4-8.4.1-.2,4.6,2.1,9.9,5.1,36.3,20.6,78,34.7,122.9,41.8,12.5,1.9,18.2,2.2,44.8,2.2,31.8,0,41.5-.8,65-5.4,37.7-7.4,76.8-22.1,109-40.8,10.4-6.1,12.3-7,10.5-5.3ZM1443.5,992.53c6,10.7,6.4,13.1,3.1,21.4-1.4,3.6-2.6,7.8-2.6,9.1,0,1.4,1.6,7.6,3.5,13.9,4.2,13.6,5.6,24.4,4.4,34.3-.4,4-.8,8-.9,8.8,0,2.6-1.6-.3-5-9.5-1.9-5-6.6-15.8-10.6-24.1l-7.2-15.1,3.1-26.2,3.2-26.2,2.2,2.8c1.2,1.5,4.3,6.4,6.8,10.8Z"/>
  </g>
  <path id="e" data-name="gamerguyDeskChair" d="M804,871.73c-6.3.1-24.3,1-40,1.8-109.4,5.8-176.3,22.7-219.8,55.5-24.4,18.4-42.3,47.1-48.6,78-9.1,45.1-20,314.2-22.1,547-.3,33.8-.8,68.8-1.1,77.8l-.6,16.3-10.7,13.1c-5.8,7.2-10.7,12.5-10.8,11.7s-1.2-11.1-2.3-22.9-5.1-54.6-9-95c-3.8-40.4-7.1-75.1-7.2-77.1-.3-3.3.2-4,6.9-9.8,4-3.4,10.1-9.7,13.6-13.9l6.5-7.7,1.1-57c.6-31.4,1.6-70.3,2.2-86.5s.8-31.2.5-33.3c-.9-5.3-6.8-22.2-10.1-28.7-7.9-15.6-22.9-31.9-36.8-39.8-27.7-15.9-57.5-14.6-86.2,3.6-9.6,6.1-16.4,12-27.3,23.6-23.9,25.4-43.5,60.4-57.6,102.6-10.6,32.1-16.4,60.3-20.7,101.7l-1.3,12.2,2.9,4.2c4.7,7.1,20.1,22.3,29.3,28.9,14.4,10.4,33,18.4,52.5,22.7,11.7,2.6,45.9,2.5,60.5-.1,5.7-1,10.6-1.5,10.9-1.2.6.6,2.1,15.7,11.3,116.1,2.3,24.7,5.6,61.2,7.5,81l3.3,35.9-17.1,24.5c-20.7,29.5-20,28.4-15.1,24.3,9.3-7.8,31.8-24.2,45.3-33.2,70.2-46.6,153.7-82.4,241.5-103.5,170.6-41,378.3-36.9,536.6,10.7,91.1,27.3,173.5,70.2,235,122.3,6.5,5.5,8.9,7.1,7.6,5-1.1-1.7-10.1-16.7-20-33.5l-18-30.4,4.7-54.6c2.5-30,6.7-79.3,9.3-109.5,2.6-30.3,4.9-55.2,5.1-55.4.1-.2,5.8.4,12.5,1.4,8.6,1.4,18,1.9,31.3,2,16.3,0,20.4-.3,29.4-2.3,30.9-7,56.1-22.3,75.7-46.3l5.7-7-.2-6.7c-.2-8.5-2.5-27.9-5.2-44.7-13.5-83.3-47.9-151.2-94.4-186.1-14.3-10.7-28.6-16.8-43.5-18.6-42.4-5-81.8,27.6-93.8,77.4-1.4,6.2-1.5,11.3-.3,57,.7,27.7,1.6,66.1,2,85.4l.6,35.1,2.6,3.4c1.5,1.9,7.7,8.5,13.9,14.6l11.3,11.2-6.2,70.3c-3.5,38.7-6.6,73-6.9,76.3l-.7,5.9-13.7-21.5-13.7-21.5-.6-26.4c-.3-14.6-1.2-61.2-2.1-103.7-3-161.1-9.5-321.5-16.4-406.6-3.2-38.8-5.7-50.2-15.5-70.2-7.1-14.5-13-22.8-23.8-33.5-32.6-32.7-83.6-52.1-166.2-63.4-30.4-4.2-61.7-6.4-118.5-8.6-22.3-.8-142.8-1.1-175-.3ZM966.5,920.03c52.7,1.1,75.8,2.2,105,5.1,52.7,5.2,93.5,15.8,128.4,33.3,34.7,17.5,49.5,38.5,57.1,81.1,6.4,35.7,15.8,225.1,18.9,383,1.9,94.2,2.1,113.1,1.1,111.4-1.5-2.5-11.4-37.5-15.5-54.4-23.1-96.4-39-200-45-294-5.3-82.4-21.4-127.6-55.5-155.9-26.1-21.7-55.9-33.3-98.7-38.4-13.5-1.5-28.7-1.7-167.8-1.7s-153.9.1-165.5,1.8c-18.3,2.6-31,5.4-44.3,9.8-51,16.7-81.9,49.7-95.7,102.4-6.4,24.3-9.4,46-11,79-4.5,91.5-19.8,194-43.5,292-4.3,17.9-16.2,59.4-17.2,60.5-.5.5.1-53,1.3-106,1.9-91.8,6-218.7,8.4-261,.5-9.6,1.7-30.3,2.5-46,4.2-78.2,8.7-105.6,20.9-127.4,16.5-29.5,67.2-54.7,132.1-65.5,25-4.2,47.7-6.3,86.5-8.1,12.9-.6,25.8-1.2,28.5-1.3,13-.8,127.1-.6,169,.3ZM388,1221.23c25.7,7.9,44.2,34.5,48.5,70l.7,5.8-6.2-3.3c-5.9-3-6.9-3.2-16.4-3.1-8.6,0-11.5.5-19.3,3.2-20.6,7-37.8,17.8-63,39.4-16.8,14.5-25.2,26.3-29.8,42.2-3.1,10.8-5.8,33.2-5.3,44.2.4,10.6,3.3,15.4,11.6,19.2,5.1,2.3,6.9,2.6,17.2,2.5,12.2,0,15.2-.5,49-7.9,23.5-5.1,37.8-6.2,49-3.6,9.5,2.2,9.5,2.3-.1,11.5-21.3,20.2-52.3,31.7-85.9,31.7-31.3,0-57.3-9.9-77.9-29.5l-7.3-7,2.6-18c6.7-45.4,15.3-77.6,28.3-106,30.2-65.6,71.1-101.4,104.3-91.3ZM1425.5,1220.13c21.1,3.9,46.2,25.9,66.8,58.7,23.8,37.9,38.1,81.6,46.1,141.1l2.2,16.4-2.5,3c-11.2,13.3-30.6,25-50.6,30.4-9.2,2.5-11.6,2.7-29,2.8-21.1,0-30-1.3-45.5-6.8-17.3-6-34.7-16.5-44.5-26.8l-6-6.3,3.2-1.2c5.3-2.2,15.7-3.4,23.9-2.8,8.5.6,17.2,2.1,47.4,8.3,23.4,4.7,32.2,5.6,41.5,4.1,11.5-1.8,18.4-8.3,19.9-18.6.6-5-.8-21.9-2.9-34.7-3.2-18.5-9.4-30.3-24-45.5-21.8-22.7-47.6-40.1-71.8-48.4-7.8-2.7-10.7-3.2-19.2-3.2-9.4-.1-10.4.1-16.3,3.2l-6.4,3.3.7-4.3c3.2-20.7,7.4-33.2,15.1-45,9.2-14.3,23.8-25.1,37.4-27.7,6.4-1.2,7.9-1.2,14.5,0Z"/>
  <path id="f" data-name="gamerguyDeskRight" d="M1447.7,943.73c16.8,18.8,26.7,35.1,31.4,51.3,2.3,8,2.4,16.2.2,24.4-1.6,6.1-1.6,6.3,1,14.1,3.9,11.8,5,21.1,4.4,36.5-.8,21.4-6.8,39.3-19.3,57.6l-6.2,9.1,79.7.6c43.8.4,104.8,1,135.6,1.4l56,.8-33.5.6c-18.4.3-80.2.7-137.4.8l-103.9.1-7,6.6c-13.9,13.2-28.3,22.5-47.7,31.1l-7.5,3.2,211.3.1h211.2v-48.8l-24.7-18c-36.1-26-224.8-163-239.9-174l-7.1-5.2h-103.5l6.9,7.7Z"/>
  <g id="g" data-name="gamerguyDeskLeft">
    <path d="M253,952.93c-20.8,14.8-144.7,103.2-223.8,159.5-15.5,11-27.6,20.2-27,20.3,1.4.3,326.2,2.2,326.5,2,0-.1-2.4-3.6-5.4-7.7-9.2-12.4-18.3-34.1-22.4-53-4.2-19.6-2.4-48.5,4.6-71,5.7-18.5,13.9-32.3,37-62.3l3.7-4.7h-34.9l-34.8.1-23.5,16.8Z"/>
    <path d="M0,1162.23v19.8h199.5c109.7,0,199.5-.2,199.5-.4s-2.8-1.4-6.2-2.6c-16.4-5.9-34.7-16.9-49.2-29.5l-8.9-7.7-167.3.3-167.4.3v19.8Z"/>
  </g>
</svg>