<svg xmlns="http://www.w3.org/2000/svg" data-name="Capa 1" viewBox="0 0 1816 1783">
    <path d="m769 388-7 4q-6 3-14 3c-7 0-8 0-12-2l-4-3-5 3q-14 5-26 0c-10-5-29-26-39-45l-4-6H504c-170 0-159 0-168 7l-7 9-3 6v472l2 5q5 10 14 15 12 6 26 4 5 1 9-6 8-10 30-25 12-9 11-11l3-48q0-6 10-29c15-38 24-61 37-100 9-24 13-33 22-46 8-12 24-28 35-36 9-7 26-15 36-19 11-4 29-9 65-17l33-9 5-8 11-23c3-9 8-19 8-22l2-6 20-8q42-18 77-27" data-name="gamerguyMonitorLeft"/>
    <path d="M1009 421q40 8 80 21l16 6 19 32 20 34 13 3c62 7 97 22 126 53 14 16 23 33 35 69 17 46 25 69 42 105 10 23 11 25 12 54v18l18 11c28 18 28 18 32 28l2 5h7q22 0 33-12c8-8 7 12 7-248l-1-234-2-5q-5-11-15-16l-6-2-154-1h-155l-4 7c-12 20-30 40-40 44q-15 4-26 0l-4-3-5 3q-8 4-23 0l-12-6" data-name="gamerguyMonitorRight"/>
    <g data-name="gamerguyBody">
        <path d="m1007 399 13-31 5 3q14 8 23 9 7 0 13-6l2-3 6 5c13 9 20 6 36-11 23-27 34-58 36-105l-1-21q-4-10-14-15l-5-2v-7l-2-11v-5h5l5-1c0-5-8-36-11-46q-3-5-5-5c-3 0-3 0-6-9q-13-40-52-78c-20-20-36-31-59-41a260 260 0 0 0-204 4c-28 13-59 41-81 71-7 10-18 32-23 45-2 8-3 8-6 8-2 0-3 0-5 8-3 9-11 42-10 43l5 1h4v5l-2 12v7l-6 2q-9 5-13 15-3 11 2 45c5 37 16 61 39 85q15 18 30 6l6-4 4 3q7 7 13 5c5 0 15-5 20-9q4-3 6-2l5 14 15 34 2-1a409 409 0 0 1 136-6l64 8m114-179c7-10 8-10 15-6s7 6 7 21l-1 20c-1 7-7 26-8 26l-2-10q-3-18-8-26-2-3-7-5l-5-3zm-54 9c-5 9-5 9-10 0l-3-6 1-7c3-13 12-30 17-32 2-1 11 1 13 2l-3 10-7 17zm36 59-3 10a210 210 0 0 1-21 39 410 410 0 0 1 18-68l3 10zm-36-208c12 15 20 27 26 44q6 11 0 11l-3 2 9 40v4l-7-2q-15-6-24-3l-5 2 1-10 1-9 3 2 5 5 2 2-1-8-3-22-2-15c2-2-9-34-17-52l-6-11zM688 258q-10 4-14 29c-3 15-2 15-6 4-5-16-8-43-5-51q4-9 15-10 5-1 6 4l1 5 3 9 4 8zm28 80-9-19-5-12 3-9 3-8a440 440 0 0 1 19 66zm30-88-3 6-2-2c-3-4-11-20-15-32l-6-14-1-2 12-4 5 4q7 8 11 23c4 10 4 14-1 21m16-173a535 535 0 0 0-33 78l7-3 6-4-3 15c-3 16-4 17-2 17h1l1 9q1 9-2 7-10-3-22 1c-12 4-8 3-8 1l4-22 4-21-3-1q-3 0-2-4c0-7 12-29 23-44zm51 295c-1 11-8 33-11 33-1 1-9-14-14-26-6-13-8-20-10-35l-2-17v-3l2 2 19 21 17 19zm171 6v-10l34-40-6 38-18 36c-2 1-8-15-10-24m-134 48a488 488 0 0 0-149 43c-1 0-8 14-15 32l-14 32h-7c-11 0-81 17-101 25-21 8-43 24-57 42-7 10-13 22-20 44l-38 100c-11 28-11 29-13 65l-1 21-14 10q-23 17-29 24-3 3-4 13c-2 19-6 31-13 47-6 11-10 17-23 34-12 15-18 25-25 38-8 16-8 15-3 26a548 548 0 0 0 40 78l-10-5q-28-14-37-35l-2-5v9c2 25 20 57 45 76q40 33 81 29 14-2 24-7l3-1 1-26c2-47 7-107 10-125q13-77 87-114c66-32 160-43 349-42 113 1 173 6 232 19q120 25 154 95c11 23 15 39 19 84l6 96v14l4 2c12 6 30 8 44 6 41-9 74-36 90-73q12-30 0-65l-2-8 2-6q3-9 1-19c-2-7-8-19-14-27l-27-32-5-4v-20c-1-21-2-31-7-46-4-13-6-15-16-22l-24-15c-15-9-16-9-15-12 1-6-2-47-3-53l-9-21a1015 1015 0 0 1-53-136q-21-40-60-60a267 267 0 0 0-95-21c-1 0-9-12-17-27-21-35-25-42-27-43a644 644 0 0 0-244-35m110 23a472 472 0 0 1 123 26c2 2 30 51 37 66l3 5 7 1c26 2 61 8 75 12q45 14 68 53c4 7 6 11 17 44a1226 1226 0 0 0 46 114c2 5 3 26 3 46v18l15 9 25 16c12 7 14 8 16 16 4 13 5 21 5 46v24l4 2 21 20 4 5-5 14a462 462 0 0 0-29 151l-8-32c-3-25-4-58-2-78l8-36 2-7-9-12c-16-20-18-25-17-52l2-22v-5l-10-4c-54-21-73-44-83-102l-3-19q-2-7-14-22-14-16-18-34a224 224 0 0 1 2-74 204 204 0 0 0-19 38q-1 1-2-3c-6-22-31-48-59-62a203 203 0 0 0-50-18l9-8 9-7-156 27 4-2 78-39h-7l-7 1 29-23c33-25 33-24 13-22l-65 10 56-34-21-4a922 922 0 0 0-176-17l19-14 19-14 14 1zm120 160-12 9q-76 60-171 60c-95 0-116-19-169-58l-11-9 10 5a364 364 0 0 0 168 44c32 0 41 0 65-5a363 363 0 0 0 120-46m364 384c6 10 6 13 3 21l-3 9 4 14a82 82 0 0 1 3 43q0 5-5-9l-11-25-7-15 3-26 3-26 3 3z"/>
    </g>
    <path d="m804 872-40 2c-109 5-176 22-220 55-24 18-42 47-48 78a6408 6408 0 0 0-24 625v16l-11 13-11 12-2-23-9-95-7-77q-2-3 7-10l13-14 7-7 1-57 2-87 1-33c-1-6-7-22-11-29-7-16-22-32-36-40a79 79 0 0 0-87 4q-12 8-27 23-36 40-57 103c-11 32-17 60-21 102l-1 12 2 4c5 7 21 22 30 29q22 15 52 23a236 236 0 0 0 72-2l11 117 7 81 4 35-17 25c-21 29-20 28-15 24a692 692 0 0 1 286-136c171-41 379-37 537 10a662 662 0 0 1 243 128l-20-34-18-30 4-55 15-165 12 2a203 203 0 0 0 61-1q46-10 76-46l5-7v-7c0-8-2-28-5-44-14-84-48-152-95-187a90 90 0 0 0-43-18c-42-5-82 27-94 77v57l2 86v35l3 3 14 15 11 11-6 70-7 77-1 5-13-21-14-22-1-26-2-104c-3-161-9-321-16-406a153 153 0 0 0-39-104c-33-33-84-52-167-63-30-5-61-7-118-9zm163 48c52 1 75 2 105 5q77 7 128 33c35 18 49 39 57 82a4963 4963 0 0 1 20 494l-15-54c-24-97-39-200-45-294-6-83-22-128-56-156-26-22-56-34-99-39l-168-1-165 1q-26 4-44 10-76 24-96 103c-6 24-9 46-11 79a1614 1614 0 0 1-61 352l2-106c1-92 6-219 8-261l2-46c5-78 9-106 21-127 17-30 68-55 132-66 25-4 48-6 87-8l28-1zm-579 301c26 8 44 35 49 70v6l-6-3c-6-3-7-3-16-3s-12 0-20 3c-20 7-37 18-63 39a84 84 0 0 0-29 42c-4 11-6 34-6 45q0 14 12 19c5 2 7 2 17 2 12 0 15 0 49-8q34-7 49-3c10 2 10 2 0 11q-33 32-86 32-46 0-78-29l-7-7 2-18c7-46 16-78 29-106 30-66 71-102 104-92m1038-1c21 4 46 26 66 59 24 38 38 81 46 141l3 16-3 3c-11 14-31 25-51 31-9 2-11 2-28 3a124 124 0 0 1-90-34l-6-6 3-2q9-3 24-2c8 0 17 2 47 8 23 5 32 6 42 4q17-3 19-19c1-5 0-21-2-34-4-19-10-31-24-46q-34-35-72-48c-8-3-11-3-19-3-10 0-11 0-17 3l-6 3 1-4c3-21 7-33 15-45q15-22 37-28z" data-name="gamerguyDeskChair"/>
    <path d="M1448 944q25 28 31 51 4 12 0 24c-1 7-1 7 1 15q6 15 5 36-1 31-20 58l-6 9h80l136 2 56 1h-34l-137 1h-104l-7 7q-20 19-48 31l-7 3h422v-49l-25-18-240-174-7-5h-103z" data-name="gamerguyDeskRight"/>
    <g data-name="gamerguyDeskLeft">
        <path d="M253 953 29 1112l-27 21 327 2-6-8c-9-12-18-34-22-53-4-20-2-48 5-71 5-18 13-32 37-62l3-5h-69zM0 1162v20h399l-6-3q-27-10-49-29l-9-8H0z"/>
    </g>
</svg>
