<svg xmlns="http://www.w3.org/2000/svg" data-name="Capa 1" viewBox="0 0 600 589.1">
  <path d="m254 128-2 1-5 1h-4l-1-1-2 1h-8c-4-2-10-9-13-15l-2-2h-50c-57 0-53 0-56 2l-2 3-1 2v158l5 5q4 2 9 1l3-2 9-8 4-4 1-16 3-9a563 563 0 0 0 20-48l11-12c3-3 9-5 12-7l22-5 11-3 1-3 4-7 3-8v-2l7-2 25-9" data-name="gamerguyMonitorLeft" style="stroke-width:.330396"/>
  <path d="m333 139 27 7 5 2 6 11 7 11 4 1c21 2 32 7 42 17 5 6 7 11 11 23l14 35c4 7 4 8 4 18v6l6 3c10 6 10 6 11 9v2h3q7 0 11-4c2-3 2 4 2-82v-77l-1-2-5-5-2-1H376l-1 2c-4 7-10 13-14 15h-8l-1-1-2 1h-8l-4-2" data-name="gamerguyMonitorRight" style="stroke-width:.330396"/>
  <path d="m333 132 4-10 2 1 7 3q3 0 5-2v-1l2 1c4 3 7 2 12-3 8-9 11-20 12-35v-7l-5-5-2-1v-7h1l2-1-4-15-1-1-2-3q-5-14-17-26c-7-7-12-10-20-14a86 86 0 0 0-67 2c-10 4-20 13-27 23l-8 15c0 3-1 3-2 3l-1 2-4 14 2 1h1v8h-2l-5 5q-1 4 1 15c2 12 5 20 13 28q5 6 10 2l2-1 1 1 4 2 7-3 2-1 2 5 5 11v-1a135 135 0 0 1 45-2l21 3m38-59c2-3 3-3 5-2s2 2 2 7v6l-3 9v-3l-3-9-2-1-2-1zm-18 3c-1 3-1 3-3 0l-1-2v-2c1-5 4-10 6-11l4 1-1 3-2 6zm12 19-1 4a69 69 0 0 1-7 13 135 135 0 0 1 6-23l1 3zm-12-68c4 5 7 9 9 14q2 4 0 4l-1 1 3 13v1l-3-1q-4-2-7-1l-2 1v-3l1-3h1l1 2 1 1v-3l-1-7-1-5c1-1-3-11-6-17l-2-4zM227 85q-3 2-4 10c-1 5-1 5-2 1-2-5-3-14-2-17q1-3 5-3l2 1v2l1 3 2 3zm10 27-3-7-2-4 1-3 1-2a145 145 0 0 1 6 22zm9-29-1 2v-1l-5-11-2-4v-1l4-1 1 1 4 8c1 3 1 4-1 7m6-58a177 177 0 0 0-11 26l2-1 2-1-1 5v11h-10l1-7 1-7h-1v-1c0-3 4-10 7-15zm17 98-4 11-5-9-3-11-1-6v-1l1 1 6 7 6 6zm56 2v-3l11-14-2 13-6 12-3-8m-44 16a161 161 0 0 0-49 14l-5 10-5 11h-2l-34 8a42 42 0 0 0-25 29l-13 33c-3 9-3 9-4 21v7l-5 3-9 8-2 5c0 6-2 10-4 15-2 4-3 6-8 11l-8 13c-3 5-3 5-1 9a181 181 0 0 0 13 25l-3-1q-9-5-12-12l-1-1v3c1 8 7 18 15 25q13 11 27 9l8-2h1v-9l3-41q5-26 29-38c22-11 53-14 115-14 38 0 57 2 77 6q40 9 51 32c3 7 5 13 6 28l2 31v5l1 1c4 2 10 2 15 2 14-3 24-12 30-25q4-10 0-21l-1-3 1-2v-6l-5-9-9-10-1-2v-6l-2-16c-2-4-2-5-6-7l-8-5-5-4c1-2 0-15-1-17l-3-7a335 335 0 0 1-17-45q-7-13-20-20a88 88 0 0 0-31-7l-6-9-9-14a213 213 0 0 0-80-12m36 8a156 156 0 0 1 40 9l13 21 1 2h2l25 4q15 5 22 18c2 2 2 3 6 14a405 405 0 0 0 15 38l1 15v6l5 3 8 5c4 3 5 3 6 6l1 15v8l2 1 6 6 2 2-2 4a153 153 0 0 0-9 50l-3-10-1-26 3-12 1-2-3-4c-6-7-6-8-6-17l1-8v-1l-4-2c-18-7-24-14-27-33l-1-7-5-7q-4-5-6-11a74 74 0 0 1 1-25 67 67 0 0 0-6 13l-1-1c-2-7-10-16-19-20a67 67 0 0 0-17-6l3-3 3-2-52 9 2-1 26-13h-5l10-7c10-9 10-8 4-8l-22 4 19-11-7-2a305 305 0 0 0-58-5l6-5 6-5 5 1zm39 53-3 3q-26 20-57 20c-31 0-38-7-56-20l-3-2 3 1a120 120 0 0 0 55 15c11 0 14 0 22-2a120 120 0 0 0 39-15m121 127c2 3 2 4 1 7l-1 3 1 4a27 27 0 0 1 1 14q0 2-2-3l-3-8-3-5 1-8 1-9 1 1z" data-name="gamerguyBody"/>
  <path d="m266 288-14 1c-36 1-58 7-72 18-8 6-14 15-16 26a2117 2117 0 0 0-8 206v5l-4 5-3 4-1-8-3-31-2-26q-1-1 2-3l4-5 3-2v-19l1-29v-10c0-2-2-8-4-10-2-5-7-11-12-13a26 26 0 0 0-28 1l-9 8q-12 13-19 34c-4 10-6 20-7 33v6l10 9q8 5 17 8a78 78 0 0 0 24-1l4 39 2 27 1 11-5 8-5 8a229 229 0 0 1 94-45c57-13 126-12 178 4a219 219 0 0 1 80 42l-6-11-6-10 1-18 5-55 4 1a67 67 0 0 0 20 0q15-4 25-16l2-2v-2l-2-15c-5-28-16-50-31-62a30 30 0 0 0-15-6c-13-1-27 9-31 26v19l1 28v12l1 1 5 5 3 3-2 23-2 26v2l-5-7-4-8-1-8v-35l-5-134a51 51 0 0 0-13-34c-11-11-28-17-56-21-9-2-20-2-39-3zm53 16c18 0 25 1 35 2q26 2 42 10c12 6 17 13 19 28a1640 1640 0 0 1 7 163l-5-18c-8-32-13-66-15-97-2-28-7-42-18-52-9-7-19-11-33-13H241l-15 4q-25 8-31 34l-4 26a533 533 0 0 1-20 116v-35l3-86 1-15c1-26 3-35 7-42 5-10 22-18 43-22l29-3h9zm-191 99c9 3 15 12 16 24v1l-2-1h-11c-7 3-13 6-21 13a28 28 0 0 0-10 14l-2 15q0 5 4 6l6 1 16-3q11-2 16-1c3 1 3 1 0 4q-11 11-28 11-16 0-26-10l-2-2v-6c3-15 6-26 10-35 10-22 23-34 34-31m343 0c7 1 15 9 22 20 8 12 13 26 15 46l1 5-1 1c-3 5-10 9-17 11l-9 1a41 41 0 0 1-30-12l-2-2h1l8-1 16 3c7 1 10 2 14 1q5-1 6-6l-1-11c-1-7-3-11-8-16q-11-11-23-16h-12l-2 1v-1c1-7 2-11 5-15q5-7 12-9z" data-name="gamerguyDeskChair" style="stroke-width:.330396"/>
  <path d="M478 312q9 9 11 17v13q2 5 2 11-1 11-7 20l-2 3h71l19 1h-91l-2 2q-7 7-16 11h-2 139v-16l-8-6-80-57-2-2h-34z" data-name="gamerguyDeskRight" style="stroke-width:.330396"/>
  <path d="m84 315-74 52-9 7 108 1-2-3c-3-4-6-11-8-17-1-7 0-16 2-24 2-6 4-10 12-20l1-2H92ZM0 384v6h132-2q-9-4-16-10l-3-3H0Z" data-name="gamerguyDeskLeft"/>
</svg>
